<svg width="20" height="24" viewBox="0 0 20 24" fill="none" xmlns="http://www.w3.org/2000/svg">
<path d="M17 14V12C17 10.1144 17 9.17157 16.4142 8.58579C15.8284 8 14.8856 8 13 8H11.6569C10.8394 8 10.4306 8 10.0631 7.84776C9.69552 7.69552 9.40649 7.40649 8.82843 6.82843L8.17157 6.17157C7.59351 5.59351 7.30448 5.30448 6.93694 5.15224C6.5694 5 6.16065 5 5.34315 5H5C3.11438 5 2.17157 5 1.58579 5.58579C1 6.17157 1 7.11438 1 9V15C1 16.8856 1 17.8284 1.58579 18.4142C2.17157 19 3.11438 19 5 19H12" stroke="white" stroke-width="2"/>
<path d="M14 19H17M17 19H20M17 19V22M17 19V16" stroke="white" stroke-width="2"/>
</svg>
