<svg width="17" height="18" viewBox="0 0 17 18" fill="none" xmlns="http://www.w3.org/2000/svg">
<path d="M2.27783 15.7778H5.27783V10.7778C5.27783 10.4945 5.37383 10.2572 5.56583 10.0658C5.75783 9.8745 5.99517 9.7785 6.27783 9.77783H10.2778C10.5612 9.77783 10.7988 9.87383 10.9908 10.0658C11.1828 10.2578 11.2785 10.4952 11.2778 10.7778V15.7778H14.2778V6.77783L8.27783 2.27783L2.27783 6.77783V15.7778ZM0.277832 15.7778V6.77783C0.277832 6.46117 0.348832 6.16117 0.490832 5.87783C0.632832 5.5945 0.828499 5.36117 1.07783 5.17783L7.07783 0.677832C7.42783 0.411165 7.82783 0.277832 8.27783 0.277832C8.72783 0.277832 9.12783 0.411165 9.47783 0.677832L15.4778 5.17783C15.7278 5.36117 15.9238 5.5945 16.0658 5.87783C16.2078 6.16117 16.2785 6.46117 16.2778 6.77783V15.7778C16.2778 16.3278 16.0818 16.7988 15.6898 17.1908C15.2978 17.5828 14.8272 17.7785 14.2778 17.7778H10.2778C9.9945 17.7778 9.75717 17.6818 9.56583 17.4898C9.3745 17.2978 9.2785 17.0605 9.27783 16.7778V11.7778H7.27783V16.7778C7.27783 17.0612 7.18183 17.2988 6.98983 17.4908C6.79783 17.6828 6.5605 17.7785 6.27783 17.7778H2.27783C1.72783 17.7778 1.25717 17.5822 0.865832 17.1908C0.474499 16.7995 0.278499 16.3285 0.277832 15.7778Z" fill="black"/>
</svg>
