<svg width="24" height="25" viewBox="0 0 24 25" fill="none" xmlns="http://www.w3.org/2000/svg">
<path d="M11.9132 0.891349C11.8742 0.898399 11.8357 0.907957 11.7978 0.919965C11.5894 0.966674 11.4037 1.0842 11.2722 1.25252C11.1408 1.42084 11.0718 1.62953 11.0769 1.84304V2.76612H2.76923C2.03479 2.76612 1.33042 3.05788 0.811089 3.57721C0.291757 4.09654 0 4.8009 0 5.53535L0 17.5353C0 19.064 1.24062 20.3046 2.76923 20.3046H11.0769V20.6507L6.05723 23.1606C5.83543 23.2677 5.66526 23.4585 5.58416 23.6911C5.50305 23.9237 5.51766 24.1789 5.62477 24.4007C5.73188 24.6225 5.92271 24.7927 6.15528 24.8738C6.38785 24.9549 6.64312 24.9403 6.86492 24.8332L11.0769 22.7277V23.0738C11.0769 23.3186 11.1742 23.5534 11.3473 23.7265C11.5204 23.8996 11.7552 23.9969 12 23.9969C12.2448 23.9969 12.4796 23.8996 12.6527 23.7265C12.8258 23.5534 12.9231 23.3186 12.9231 23.0738V22.7277L17.1351 24.8332C17.3569 24.9403 17.6121 24.9549 17.8447 24.8738C18.0773 24.7927 18.2681 24.6225 18.3752 24.4007C18.4823 24.1789 18.4969 23.9237 18.4158 23.6911C18.3347 23.4585 18.1646 23.2677 17.9428 23.1606L12.9231 20.6507V20.3046H21.2308C22.7594 20.3046 24 19.064 24 17.5353V5.53535C24 4.8009 23.7082 4.09654 23.1889 3.57721C22.6696 3.05788 21.9652 2.76612 21.2308 2.76612H12.9231V1.84304C12.9277 1.71178 12.9043 1.58103 12.8544 1.45954C12.8045 1.33804 12.7293 1.2286 12.6337 1.13851C12.5381 1.04843 12.4244 0.979785 12.3001 0.937162C12.1759 0.894539 12.044 0.87892 11.9132 0.891349ZM1.84615 5.53535H22.1538V17.5353H1.84615V5.53535ZM19.2692 6.45843C19.0625 6.48065 18.8693 6.57205 18.7209 6.71781L15.6923 9.74735L13.5868 7.63996C13.4859 7.5365 13.3622 7.45815 13.2256 7.41121C13.0889 7.36427 12.9432 7.35007 12.8001 7.36973C12.6569 7.3894 12.5204 7.44238 12.4015 7.52443C12.2826 7.60648 12.1846 7.71529 12.1154 7.84212L9.37477 12.631L8.24954 9.80366C8.1949 9.65767 8.10418 9.5279 7.98584 9.42644C7.8675 9.32499 7.72539 9.25515 7.57278 9.22345C7.42016 9.19175 7.262 9.19921 7.11304 9.24514C6.96408 9.29107 6.82919 9.37397 6.72092 9.48612L3.95169 12.2553C3.86441 12.3426 3.79517 12.4461 3.74791 12.5601C3.70065 12.6741 3.67631 12.7962 3.67626 12.9196C3.67622 13.043 3.70048 13.1652 3.74766 13.2792C3.79484 13.3932 3.86401 13.4968 3.95123 13.5841C4.03845 13.6714 4.142 13.7406 4.25598 13.7879C4.36996 13.8352 4.49213 13.8595 4.61552 13.8595C4.73891 13.8596 4.8611 13.8353 4.97511 13.7881C5.08912 13.741 5.19272 13.6718 5.28 13.5846L7.03938 11.8252L8.36677 15.1132C8.42942 15.2781 8.538 15.4216 8.67967 15.5267C8.82134 15.6318 8.99016 15.6941 9.16614 15.7063C9.34213 15.7184 9.5179 15.6799 9.67266 15.5952C9.82742 15.5105 9.95469 15.3833 10.0394 15.2286L13.1262 9.83412L15.0295 11.7384C15.1156 11.8275 15.2187 11.8983 15.3328 11.9467C15.4468 11.995 15.5694 12.02 15.6932 12.02C15.8171 12.02 15.9397 11.995 16.0537 11.9467C16.1677 11.8983 16.2708 11.8275 16.3569 11.7384L20.0492 8.04612C20.195 7.91112 20.2934 7.73268 20.3297 7.53731C20.366 7.34194 20.3383 7.14008 20.2506 6.96173C20.163 6.78338 20.0202 6.63806 19.8434 6.54739C19.6666 6.45671 19.4652 6.42551 19.2692 6.45843Z" fill="white"/>
</svg>
