<svg width="22" height="22" viewBox="0 0 22 22" fill="none" xmlns="http://www.w3.org/2000/svg">
<path d="M21 9.42008V8.63708C21 6.69708 21 5.72808 20.414 5.12508C19.828 4.52308 18.886 4.52308 17 4.52308H14.921C14.004 4.52308 13.996 4.52108 13.171 4.10808L9.84 2.44108C8.449 1.74508 7.753 1.39708 7.012 1.42108C6.271 1.44508 5.6 1.83808 4.253 2.62408L3.026 3.34008C2.037 3.91708 1.543 4.20608 1.272 4.68608C1 5.16608 1 5.75008 1 6.91908V15.1361C1 16.6711 1 17.4391 1.342 17.8661C1.57 18.1511 1.889 18.3421 2.242 18.4061C2.772 18.5011 3.422 18.1221 4.72 17.3641C5.602 16.8491 6.45 16.3141 7.505 16.4591C8.389 16.5811 9.21 17.1391 10 17.5341M7 1.42008V16.4201M14 4.42008V12.4201M17.83 13.1741C18.128 12.8511 18.277 12.6901 18.435 12.5961C18.6219 12.484 18.835 12.4232 19.0528 12.4196C19.2707 12.4161 19.4856 12.4701 19.676 12.5761C19.837 12.6661 19.991 12.8231 20.298 13.1371C20.605 13.4511 20.758 13.6071 20.846 13.7721C21.058 14.1691 21.051 14.6501 20.828 15.0401C20.736 15.2021 20.578 15.3541 20.262 15.6591L16.5 19.2821C15.901 19.8591 15.602 20.1471 15.227 20.2941C14.853 20.4401 14.441 20.4291 13.618 20.4071L13.506 20.4051C13.256 20.3981 13.13 20.3951 13.057 20.3121C12.985 20.2291 12.995 20.1021 13.014 19.8471L13.025 19.7071C13.081 18.9891 13.109 18.6301 13.249 18.3071C13.389 17.9841 13.632 17.7221 14.116 17.1971L17.83 13.1741Z" stroke="white" stroke-width="1.5" stroke-linecap="round" stroke-linejoin="round"/>
</svg>
