<svg width="18" height="22" viewBox="0 0 18 22" fill="none" xmlns="http://www.w3.org/2000/svg">
<path fill-rule="evenodd" clip-rule="evenodd" d="M0.25 4.91992C0.25 3.37792 1.48 2.18392 3.008 1.41992C4.58 0.635922 6.7 0.169922 9 0.169922C11.3 0.169922 13.42 0.634922 14.992 1.41992C16.52 2.18392 17.75 3.37792 17.75 4.91992V16.9199C17.75 18.4619 16.52 19.6549 14.992 20.4199C13.42 21.2049 11.3 21.6699 9 21.6699C6.7 21.6699 4.58 21.2049 3.008 20.4199C1.48 19.6539 0.25 18.4609 0.25 16.9199V4.91992ZM1.75 4.91992C1.75 4.25292 2.31 3.44592 3.679 2.76192C5.002 2.10092 6.882 1.66992 9 1.66992C11.118 1.66992 12.998 2.09992 14.321 2.76192C15.69 3.44592 16.25 4.25192 16.25 4.91992C16.25 5.58792 15.69 6.39392 14.321 7.07792C12.998 7.73892 11.118 8.16992 9 8.16992C6.882 8.16992 5.002 7.73992 3.679 7.07792C2.31 6.39392 1.75 5.58792 1.75 4.91992ZM1.75 16.9199C1.75 17.5869 2.31 18.3939 3.679 19.0779C5.002 19.7389 6.882 20.1699 9 20.1699C11.118 20.1699 12.998 19.7399 14.321 19.0779C15.689 18.3939 16.25 17.5879 16.25 16.9199V13.6269C15.873 13.9269 15.446 14.1919 14.992 14.4189C13.42 15.2049 11.3 15.6699 9 15.6699C6.7 15.6699 4.58 15.2049 3.008 14.4199C2.5617 14.201 2.13999 13.9352 1.75 13.6269V16.9199ZM16.25 7.62692V10.9199C16.25 11.5869 15.69 12.3939 14.321 13.0779C12.998 13.7389 11.118 14.1699 9 14.1699C6.882 14.1699 5.002 13.7399 3.679 13.0779C2.31 12.3939 1.75 11.5879 1.75 10.9199V7.62692C2.127 7.92692 2.554 8.19192 3.008 8.41892C4.58 9.20492 6.7 9.66992 9 9.66992C11.3 9.66992 13.42 9.20492 14.992 8.41992C15.4383 8.20101 15.86 7.93517 16.25 7.62692Z" fill="white"/>
</svg>
