<svg width="25" height="25" viewBox="0 0 25 25" fill="none" xmlns="http://www.w3.org/2000/svg">
<g clip-path="url(#clip0_1124_13776)">
<path d="M19.7338 18.2596C18.1619 18.6371 16.521 18.6188 14.9579 18.2064C13.3948 17.794 11.9584 17.0005 10.7773 15.8967C9.59618 14.793 8.70724 13.4136 8.19007 11.882C7.6729 10.3504 7.54365 8.71441 7.81388 7.12061C7.77279 7.1603 7.72939 7.19755 7.68393 7.23216C7.36193 7.47711 6.95942 7.56796 6.15442 7.74966L5.42416 7.91526C2.59512 8.55582 1.18061 8.87553 0.843653 9.95769C0.507849 11.0387 1.47156 12.1669 3.40013 14.422L3.89924 15.0051C4.44665 15.6457 4.7215 15.9665 4.84455 16.3621C4.9676 16.7589 4.9262 17.1867 4.8434 18.0411L4.7675 18.8197C4.47655 21.8293 4.33049 23.3335 5.2114 24.0017C6.09231 24.671 7.41713 24.0615 10.0645 22.8413L10.751 22.5262C11.5031 22.1789 11.8792 22.0064 12.2782 22.0064C12.6773 22.0064 13.0533 22.1789 13.8066 22.5262L14.4909 22.8413C17.1393 24.0603 18.4642 24.6698 19.3439 24.0028C20.226 23.3335 20.0799 21.8293 19.789 18.8197L19.7338 18.2596Z" fill="#FF9345"/>
<path opacity="0.5" d="M9.00414 5.19708L8.62693 5.87329C8.21293 6.61619 8.00592 6.98765 7.68392 7.2326C7.72992 7.1981 7.77247 7.1613 7.81387 7.12105C7.54357 8.71498 7.67281 10.3511 8.19004 11.8828C8.70726 13.4145 9.59632 14.794 10.7776 15.8978C11.9588 17.0015 13.3954 17.7951 14.9586 18.2074C16.5219 18.6196 18.163 18.6377 19.7349 18.2601L19.7119 18.0416C19.6303 17.1871 19.5889 16.7593 19.7119 16.3626C19.835 15.967 20.1087 15.6461 20.6572 15.0055L21.1563 14.4225C23.0849 12.1685 24.0486 11.0403 23.7117 9.95813C23.3759 8.87597 21.9613 8.55512 19.1323 7.91571L18.4009 7.75011C17.597 7.5684 17.1945 7.47755 16.8714 7.2326C16.5494 6.98765 16.3424 6.61619 15.9284 5.87329L15.5523 5.19708C14.0952 2.58425 13.3673 1.27783 12.2782 1.27783C11.1892 1.27783 10.4612 2.58425 9.00414 5.19708Z" fill="#FF9345"/>
</g>
<defs>
<clipPath id="clip0_1124_13776">
<rect width="24" height="24" fill="white" transform="translate(0.277832 0.777832)"/>
</clipPath>
</defs>
</svg>
