<svg width="25" height="25" viewBox="0 0 25 25" fill="none" xmlns="http://www.w3.org/2000/svg">
<path d="M8.77783 21.7769H4.77783C4.51262 21.7769 4.25826 21.6715 4.07073 21.484C3.88319 21.2964 3.77783 21.0421 3.77783 20.7769V16.7769C3.77783 16.5116 3.67248 16.2573 3.48494 16.0698C3.2974 15.8822 3.04305 15.7769 2.77783 15.7769C2.51262 15.7769 2.25826 15.8822 2.07073 16.0698C1.88319 16.2573 1.77783 16.5116 1.77783 16.7769L1.77783 20.7769C1.77783 21.5725 2.0939 22.3356 2.65651 22.8982C3.21912 23.4608 3.98218 23.7769 4.77783 23.7769H8.77783C9.04305 23.7769 9.2974 23.6715 9.48494 23.484C9.67248 23.2964 9.77783 23.0421 9.77783 22.7769C9.77783 22.5116 9.67248 22.2573 9.48494 22.0697C9.2974 21.8822 9.04305 21.7769 8.77783 21.7769ZM22.7778 15.7769C22.5126 15.7769 22.2583 15.8822 22.0707 16.0698C21.8832 16.2573 21.7778 16.5116 21.7778 16.7769V20.7769C21.7778 21.0421 21.6725 21.2964 21.4849 21.484C21.2974 21.6715 21.0431 21.7769 20.7778 21.7769H16.7778C16.5126 21.7769 16.2583 21.8822 16.0707 22.0697C15.8832 22.2573 15.7778 22.5116 15.7778 22.7769C15.7778 23.0421 15.8832 23.2964 16.0707 23.484C16.2583 23.6715 16.5126 23.7769 16.7778 23.7769H20.7778C21.5735 23.7769 22.3365 23.4608 22.8992 22.8982C23.4618 22.3356 23.7778 21.5725 23.7778 20.7769V16.7769C23.7778 16.5116 23.6725 16.2573 23.4849 16.0698C23.2974 15.8822 23.0431 15.7769 22.7778 15.7769ZM20.7778 1.77686L16.7778 1.77686C16.5126 1.77686 16.2583 1.88221 16.0707 2.06975C15.8832 2.25729 15.7778 2.51164 15.7778 2.77686C15.7778 3.04207 15.8832 3.29643 16.0707 3.48396C16.2583 3.6715 16.5126 3.77686 16.7778 3.77686H20.7778C21.0431 3.77686 21.2974 3.88221 21.4849 4.06975C21.6725 4.25729 21.7778 4.51164 21.7778 4.77686V8.77686C21.7778 9.04207 21.8832 9.29643 22.0707 9.48396C22.2583 9.6715 22.5126 9.77686 22.7778 9.77686C23.0431 9.77686 23.2974 9.6715 23.4849 9.48396C23.6725 9.29643 23.7778 9.04207 23.7778 8.77686V4.77686C23.7778 3.98121 23.4618 3.21814 22.8992 2.65554C22.3365 2.09293 21.5735 1.77686 20.7778 1.77686ZM2.77783 9.77686C3.04305 9.77686 3.2974 9.6715 3.48494 9.48396C3.67248 9.29643 3.77783 9.04207 3.77783 8.77686L3.77783 4.77686C3.77783 4.51164 3.88319 4.25729 4.07073 4.06975C4.25826 3.88221 4.51262 3.77686 4.77783 3.77686L8.77783 3.77686C9.04305 3.77686 9.2974 3.6715 9.48494 3.48396C9.67248 3.29643 9.77783 3.04207 9.77783 2.77686C9.77783 2.51164 9.67248 2.25729 9.48494 2.06975C9.2974 1.88221 9.04305 1.77686 8.77783 1.77686L4.77783 1.77686C3.98218 1.77686 3.21912 2.09293 2.65651 2.65554C2.0939 3.21814 1.77783 3.98121 1.77783 4.77686L1.77783 8.77686C1.77783 9.04207 1.88319 9.29643 2.07073 9.48396C2.25826 9.6715 2.51262 9.77686 2.77783 9.77686ZM10.7778 5.77686L6.77783 5.77686C6.51262 5.77686 6.25826 5.88221 6.07073 6.06975C5.88319 6.25729 5.77783 6.51164 5.77783 6.77686L5.77783 10.7769C5.77783 11.0421 5.88319 11.2964 6.07073 11.484C6.25826 11.6715 6.51262 11.7769 6.77783 11.7769H10.7778C11.043 11.7769 11.2974 11.6715 11.4849 11.484C11.6725 11.2964 11.7778 11.0421 11.7778 10.7769V6.77686C11.7778 6.51164 11.6725 6.25729 11.4849 6.06975C11.2974 5.88221 11.043 5.77686 10.7778 5.77686ZM9.77783 9.77686H7.77783L7.77783 7.77686L9.77783 7.77686V9.77686ZM14.7778 11.7769L18.7778 11.7769C19.0431 11.7769 19.2974 11.6715 19.4849 11.484C19.6725 11.2964 19.7778 11.0421 19.7778 10.7769V6.77686C19.7778 6.51164 19.6725 6.25729 19.4849 6.06975C19.2974 5.88221 19.0431 5.77686 18.7778 5.77686H14.7778C14.5126 5.77686 14.2583 5.88221 14.0707 6.06975C13.8832 6.25729 13.7778 6.51164 13.7778 6.77686V10.7769C13.7778 11.0421 13.8832 11.2964 14.0707 11.484C14.2583 11.6715 14.5126 11.7769 14.7778 11.7769ZM15.7778 7.77686H17.7778V9.77686L15.7778 9.77686V7.77686ZM10.7778 13.7769H6.77783C6.51262 13.7769 6.25826 13.8822 6.07073 14.0698C5.88319 14.2573 5.77783 14.5116 5.77783 14.7769V18.7769C5.77783 19.0421 5.88319 19.2964 6.07073 19.484C6.25826 19.6715 6.51262 19.7769 6.77783 19.7769H10.7778C11.043 19.7769 11.2974 19.6715 11.4849 19.484C11.6725 19.2964 11.7778 19.0421 11.7778 18.7769L11.7778 14.7769C11.7778 14.5116 11.6725 14.2573 11.4849 14.0698C11.2974 13.8822 11.043 13.7769 10.7778 13.7769ZM9.77783 17.7769H7.77783V15.7769H9.77783L9.77783 17.7769ZM14.7778 16.7769C15.043 16.7769 15.2974 16.6715 15.4849 16.484C15.6725 16.2964 15.7778 16.0421 15.7778 15.7769C16.043 15.7769 16.2974 15.6715 16.4849 15.484C16.6725 15.2964 16.7778 15.0421 16.7778 14.7769C16.7778 14.5116 16.6725 14.2573 16.4849 14.0698C16.2974 13.8822 16.043 13.7769 15.7778 13.7769H14.7778C14.5126 13.7769 14.2583 13.8822 14.0707 14.0698C13.8832 14.2573 13.7778 14.5116 13.7778 14.7769V15.7769C13.7778 16.0421 13.8832 16.2964 14.0707 16.484C14.2583 16.6715 14.5126 16.7769 14.7778 16.7769ZM18.7778 13.7769C18.5126 13.7769 18.2583 13.8822 18.0707 14.0698C17.8832 14.2573 17.7778 14.5116 17.7778 14.7769V17.7769C17.5126 17.7769 17.2583 17.8822 17.0707 18.0697C16.8832 18.2573 16.7778 18.5116 16.7778 18.7769C16.7778 19.0421 16.8832 19.2964 17.0707 19.484C17.2583 19.6715 17.5126 19.7769 17.7778 19.7769H18.7778C19.0431 19.7769 19.2974 19.6715 19.4849 19.484C19.6725 19.2964 19.7778 19.0421 19.7778 18.7769V14.7769C19.7778 14.5116 19.6725 14.2573 19.4849 14.0698C19.2974 13.8822 19.0431 13.7769 18.7778 13.7769ZM14.7778 17.7769C14.5801 17.7769 14.3867 17.8355 14.2223 17.9454C14.0578 18.0553 13.9296 18.2114 13.854 18.3942C13.7783 18.5769 13.7585 18.778 13.797 18.9719C13.8356 19.1659 13.9309 19.3441 14.0707 19.484C14.2106 19.6238 14.3888 19.7191 14.5827 19.7576C14.7767 19.7962 14.9778 19.7764 15.1605 19.7007C15.3432 19.625 15.4994 19.4969 15.6093 19.3324C15.7192 19.168 15.7778 18.9746 15.7778 18.7769C15.7778 18.5116 15.6725 18.2573 15.4849 18.0697C15.2974 17.8822 15.043 17.7769 14.7778 17.7769Z" fill="#7B6AFE"/>
</svg>
