<svg width="25" height="25" viewBox="0 0 25 25" fill="none" xmlns="http://www.w3.org/2000/svg">
<g clip-path="url(#clip0_1124_13743)">
<path d="M12.7775 23.7732L12.7775 14.977M12.7775 14.977V10.5789M12.7775 14.977L17.1756 12.778M18.2751 7.28034C18.2751 5.82228 17.6959 4.42394 16.6649 3.39293C15.6339 2.36193 14.2355 1.78271 12.7775 1.78271C11.3194 1.78271 9.92107 2.36193 8.89007 3.39293C7.85906 4.42394 7.27985 5.82228 7.27985 7.28034M9.4789 7.28034H7.82961C6.22575 7.28034 4.68757 7.91747 3.55347 9.05158C2.41936 10.1857 1.78223 11.7239 1.78223 13.3277C1.78223 14.9316 2.41936 16.4698 3.55347 17.6039C4.68757 18.738 6.22575 19.3751 7.82961 19.3751H12.7775H17.7253C19.2832 19.3776 20.7819 18.7787 21.9091 17.7034C23.0363 16.628 23.7051 15.1591 23.776 13.6029C23.8468 12.0466 23.3144 10.523 22.2896 9.34968C21.2648 8.17632 19.8267 7.44371 18.2751 7.30453" stroke="#00A859" stroke-width="1.64929" stroke-linecap="round" stroke-linejoin="round"/>
</g>
<defs>
<clipPath id="clip0_1124_13743">
<rect width="24" height="24" fill="white" transform="translate(0.777832 0.777832)"/>
</clipPath>
</defs>
</svg>
