<svg width="25" height="25" viewBox="0 0 25 25" fill="none" xmlns="http://www.w3.org/2000/svg">
<g clip-path="url(#clip0_1124_13754)">
<path d="M17.015 5.20386L20.2326 8.44886L18.0875 9.53053L22.3777 13.8572L19.1601 14.9389L23.4503 19.2655H13.7973M15.9424 22.5105V19.2655M8.4345 13.8572L6.28939 11.6939M8.4345 12.7755L10.5796 10.6122M8.4345 22.5105V8.44886M6.10062 17.1022C5.63134 17.0745 5.17379 16.9434 4.76014 16.7182C4.34649 16.493 3.98679 16.1791 3.70635 15.7987C3.42591 15.4182 3.23154 14.9804 3.1369 14.516C3.04227 14.0517 3.04967 13.572 3.15859 13.1108C2.76976 12.7843 2.46278 12.3699 2.26257 11.9012C2.06237 11.4325 1.97458 10.9229 2.00635 10.4136C2.03811 9.90427 2.18853 9.4097 2.44539 8.97004C2.70225 8.53037 3.05831 8.15799 3.48465 7.88315C3.11073 7.21322 2.98479 6.43117 3.12927 5.67634C3.27376 4.9215 3.67928 4.24292 4.27359 3.76149C4.86789 3.28005 5.61238 3.02704 6.3744 3.04754C7.13643 3.06804 7.86648 3.36071 8.4345 3.8734C9.00265 3.36152 9.73246 3.06954 10.4941 3.04944C11.2557 3.02935 11.9996 3.28243 12.5935 3.76365C13.1874 4.24487 13.5928 4.923 13.7374 5.67736C13.882 6.43171 13.7565 7.21335 13.3833 7.88315C13.8097 8.1579 14.1658 8.53021 14.4228 8.96983C14.6798 9.40945 14.8303 9.90399 14.8621 10.4133C14.894 10.9226 14.8063 11.4323 14.6062 11.901C14.4061 12.3697 14.0992 12.7842 13.7104 13.1108C13.823 13.5876 13.827 14.084 13.7222 14.5626C13.6174 15.0411 13.4064 15.4896 13.1051 15.8742C12.8039 16.2588 12.4201 16.5695 11.9827 16.7832C11.5453 16.9968 11.0656 17.1077 10.5796 17.1076H6.28939L6.10062 17.1022Z" stroke="#DD2A56" stroke-width="1.31653" stroke-linecap="round" stroke-linejoin="round"/>
</g>
<defs>
<clipPath id="clip0_1124_13754">
<rect width="24" height="24" fill="white" transform="translate(0.277832 0.777832)"/>
</clipPath>
</defs>
</svg>
