<svg width="18" height="17" viewBox="0 0 18 17" fill="none" xmlns="http://www.w3.org/2000/svg">
<path d="M8.77779 14.053L4.62779 16.553C4.44446 16.6697 4.25279 16.7197 4.05279 16.703C3.85279 16.6864 3.67779 16.6197 3.52779 16.503C3.37779 16.3864 3.26113 16.2407 3.17779 16.066C3.09446 15.8914 3.07779 15.6954 3.12779 15.478L4.22779 10.753L0.552795 7.57803C0.386128 7.42803 0.282128 7.25703 0.240795 7.06503C0.199461 6.87303 0.211795 6.68569 0.277795 6.50303C0.343795 6.32036 0.443795 6.17036 0.577795 6.05303C0.711795 5.93569 0.895128 5.86069 1.12779 5.82803L5.97779 5.40303L7.85279 0.953027C7.93613 0.753027 8.06546 0.603027 8.2408 0.503027C8.41613 0.403027 8.59513 0.353027 8.77779 0.353027C8.96046 0.353027 9.13946 0.403027 9.31479 0.503027C9.49013 0.603027 9.61946 0.753027 9.7028 0.953027L11.5778 5.40303L16.4278 5.82803C16.6611 5.86136 16.8445 5.93636 16.9778 6.05303C17.1111 6.16969 17.2111 6.31969 17.2778 6.50303C17.3445 6.68636 17.3571 6.87403 17.3158 7.06603C17.2745 7.25803 17.1701 7.42869 17.0028 7.57803L13.3278 10.753L14.4278 15.478C14.4778 15.6947 14.4611 15.8907 14.3778 16.066C14.2945 16.2414 14.1778 16.387 14.0278 16.503C13.8778 16.619 13.7028 16.6857 13.5028 16.703C13.3028 16.7204 13.1111 16.6704 12.9278 16.553L8.77779 14.053Z" fill="black"/>
</svg>
