<svg width="16" height="15" viewBox="0 0 16 15" fill="none" xmlns="http://www.w3.org/2000/svg">
<path d="M7.97266 0.75C8.24609 0.75 8.46484 0.914063 8.57422 1.13281L10.4609 4.98828L14.6445 5.61719C14.8906 5.64453 15.082 5.83594 15.1641 6.05469C15.2461 6.30078 15.1914 6.54688 15 6.73828L11.9648 9.74609L12.6758 13.9844C12.7305 14.2305 12.6211 14.5039 12.4297 14.6406C12.2109 14.7773 11.9375 14.8047 11.7187 14.6953L7.97266 12.6719L4.22656 14.6953C4.00781 14.8047 3.76172 14.7773 3.54297 14.6406C3.35156 14.5039 3.24219 14.2305 3.26953 13.9844L4.00781 9.74609L0.972656 6.73828C0.78125 6.54688 0.726562 6.30078 0.808594 6.05469C0.890625 5.83594 1.08203 5.64453 1.32812 5.61719L5.51172 4.98828L7.39844 1.13281C7.50781 0.914063 7.72656 0.75 7.97266 0.75ZM7.97266 2.91016L6.55078 5.89062C6.44141 6.08203 6.27734 6.21875 6.05859 6.24609L2.80469 6.71094L5.15625 9.03516C5.32031 9.19922 5.375 9.41797 5.34766 9.63672L4.80078 12.8906L7.67187 11.3594C7.86328 11.25 8.10938 11.25 8.30078 11.3594L11.1719 12.8906L10.625 9.63672C10.5703 9.41797 10.6523 9.19922 10.8164 9.03516L13.1406 6.71094L9.91406 6.24609C9.69531 6.21875 9.50391 6.08203 9.42188 5.89062L7.97266 2.91016Z" fill="#F0950C"/>
</svg>
