<svg width="16" height="21" viewBox="0 0 16 21" fill="none" xmlns="http://www.w3.org/2000/svg">
<path fill-rule="evenodd" clip-rule="evenodd" d="M2.77783 4.15876C2.77783 5.02326 3.12933 5.43576 3.49183 5.63126C3.87833 5.83976 4.27783 5.80126 4.27783 5.80126V7.80126C4.27783 7.80126 3.37783 9.77076 2.33683 10.0988C1.99033 10.2078 1.62783 10.1348 1.27783 9.74626C1.27783 10.5773 1.67783 10.9643 2.04983 11.1448C2.37433 11.3018 2.67783 11.3018 2.67783 11.3018H3.27783V13.3018C3.27783 13.3018 2.57583 15.3498 1.43983 15.6163C1.09083 15.6983 0.700832 15.6118 0.277832 15.2463C0.277832 16.0763 0.790332 16.4633 1.26883 16.6438L1.27783 16.6473V20.8018H14.2778V16.6473L14.2863 16.6443C14.7643 16.4643 15.2778 16.0768 15.2778 15.2463C14.8638 15.6038 14.4698 15.6943 14.1083 15.6213C13.2693 15.4523 12.6058 14.4033 12.2778 13.7753V11.3018H12.8778C12.8778 11.3018 13.1813 11.3018 13.5058 11.1448C13.8778 10.9648 14.2778 10.5773 14.2778 9.74626C13.9358 10.1263 13.5708 10.2048 13.2153 10.1058C12.3903 9.87576 11.6138 8.69376 11.2778 8.11776V5.80176C11.2778 5.80176 11.6773 5.83976 12.0638 5.63126C12.4263 5.43576 12.7778 5.02276 12.7778 4.15876C12.4363 4.52476 12.0663 4.66776 11.6863 4.65376C10.4503 4.60726 9.11633 2.89476 8.37033 1.76876C8.00283 1.21376 7.77783 0.801758 7.77783 0.801758C7.77783 0.801758 7.55283 1.21376 7.18533 1.76876C6.43933 2.89476 5.10533 4.60726 3.86933 4.65376C3.48933 4.66776 3.11933 4.52476 2.77783 4.15876ZM10.5388 8.82976L10.5218 8.80176H4.88483L4.87633 8.81676C4.68883 9.14776 4.41033 9.59576 4.06633 10.0028C3.97941 10.1061 3.88833 10.2058 3.79333 10.3018H11.6903C11.5937 10.2091 11.5053 10.1184 11.4253 10.0298C11.0588 9.62676 10.7568 9.18176 10.5518 8.85076L10.5448 8.83926L10.5388 8.82976ZM8.77783 6.80176C8.91044 6.80176 9.03762 6.85444 9.13139 6.9482C9.22515 7.04197 9.27783 7.16915 9.27783 7.30176V7.80176H10.2778V5.80176H5.27783V7.80176H6.27783V7.30176C6.27783 7.16915 6.33051 7.04197 6.42428 6.9482C6.51805 6.85444 6.64522 6.80176 6.77783 6.80176C6.91044 6.80176 7.03762 6.85444 7.13139 6.9482C7.22515 7.04197 7.27783 7.16915 7.27783 7.30176V7.80176H8.27783V7.30176C8.27783 7.16915 8.33051 7.04197 8.42428 6.9482C8.51805 6.85444 8.64522 6.80176 8.77783 6.80176ZM9.77783 12.3018C9.91044 12.3018 10.0376 12.3544 10.1314 12.4482C10.2252 12.542 10.2778 12.6691 10.2778 12.8018V13.3018H11.2778V11.3018H4.27783V13.3018H5.27783V12.8018C5.27783 12.6691 5.33051 12.542 5.42428 12.4482C5.51805 12.3544 5.64522 12.3018 5.77783 12.3018C5.91044 12.3018 6.03762 12.3544 6.13139 12.4482C6.22515 12.542 6.27783 12.6691 6.27783 12.8018V13.3018H7.27783V12.8018C7.27783 12.6691 7.33051 12.542 7.42428 12.4482C7.51805 12.3544 7.64522 12.3018 7.77783 12.3018C7.91044 12.3018 8.03762 12.3544 8.13139 12.4482C8.22515 12.542 8.27783 12.6691 8.27783 12.8018V13.3018H9.27783V12.8018C9.27783 12.6691 9.33051 12.542 9.42428 12.4482C9.51805 12.3544 9.64522 12.3018 9.77783 12.3018ZM9.67033 4.80176C9.35356 4.5429 9.05765 4.25953 8.78533 3.95426C8.42407 3.54858 8.08763 3.12147 7.77783 2.67526C7.46788 3.12149 7.13126 3.5486 6.76983 3.95426C6.49767 4.25951 6.20193 4.54288 5.88533 4.80176H9.67033ZM12.2303 15.5068C12.3118 15.6028 12.4033 15.7028 12.5043 15.8018H2.95933C3.06683 15.6893 3.16183 15.5758 3.24433 15.4683C3.55233 15.0688 3.78583 14.6338 3.94283 14.3018H11.4248C11.6048 14.6388 11.8773 15.0933 12.2303 15.5068ZM6.27783 17.8018C6.01262 17.8018 5.75826 17.9071 5.57073 18.0947C5.38319 18.2822 5.27783 18.5365 5.27783 18.8018V19.8018H4.27783V16.8018H11.2778V19.8018H10.2778V18.8018C10.2778 18.5365 10.1725 18.2822 9.98494 18.0947C9.7974 17.9071 9.54305 17.8018 9.27783 17.8018H6.27783ZM2.27783 19.8018V16.8018H3.27783V19.8018H2.27783ZM12.2778 19.8018V16.8018H13.2778V19.8018H12.2778ZM9.27783 18.8018V19.8018H6.27783V18.8018H9.27783Z" fill="black"/>
</svg>
